<?xml version="1.0" standalone="no"?>
<!DOCTYPE svg PUBLIC "-//W3C//DTD SVG 20010904//EN"
 "http://www.w3.org/TR/2001/REC-SVG-20010904/DTD/svg10.dtd">
<svg version="1.0" xmlns="http://www.w3.org/2000/svg"
 width="500.000000pt" height="500.000000pt" viewBox="0 0 500.000000 500.000000"
 preserveAspectRatio="xMidYMid meet">

<g transform="translate(0.000000,500.000000) scale(0.100000,-0.100000)"
fill="#000000" stroke="none">
<path d="M3135 3305 c-232 -42 -441 -235 -535 -493 -16 -46 -30 -89 -30 -97 0
-12 22 -15 128 -15 l128 0 12 103 c28 240 116 394 256 445 154 58 332 23 461
-90 50 -44 116 -144 146 -220 11 -29 25 -57 30 -63 5 -5 9 74 9 207 0 142 -4
219 -11 223 -5 4 -35 -18 -66 -49 l-56 -56 -48 30 c-58 38 -136 66 -220 79
-80 13 -115 13 -204 -4z"/>
<path d="M1057 3283 c-4 -3 -7 -12 -7 -20 0 -10 23 -13 100 -13 l100 0 0 -275
0 -275 115 0 115 0 0 275 0 275 101 0 c90 0 100 2 97 18 -3 16 -27 17 -309 20
-168 1 -308 -1 -312 -5z"/>
<path d="M2007 3283 c-4 -3 -7 -12 -7 -20 0 -10 23 -13 100 -13 l100 0 0 -275
c0 -268 0 -275 20 -275 20 0 20 7 20 275 l0 275 100 0 c93 0 100 1 100 20 0
19 -7 20 -213 20 -118 0 -217 -3 -220 -7z"/>
<path d="M1611 2518 c-16 -37 -24 -65 -18 -67 6 -2 16 4 22 13 7 9 22 16 35
16 13 0 28 -7 35 -16 6 -9 17 -15 23 -13 15 5 -42 129 -58 129 -6 0 -24 -28
-39 -62z m52 2 c4 -15 0 -20 -14 -20 -17 0 -18 3 -9 20 6 11 12 20 14 20 2 0
6 -9 9 -20z"/>
<path d="M1830 2573 c-41 -15 -54 -78 -21 -107 22 -20 82 -18 89 3 3 10 -3 12
-25 7 -35 -8 -56 11 -51 46 3 20 9 23 41 22 41 -1 52 20 15 30 -26 6 -27 6
-48 -1z"/>
<path d="M2005 2555 c-30 -29 -32 -58 -5 -85 20 -20 54 -26 84 -14 28 11 18
27 -14 21 -30 -7 -60 12 -60 37 0 22 28 39 55 34 32 -7 42 8 16 21 -30 17 -50
13 -76 -14z"/>
<path d="M2187 2574 c-4 -4 -7 -34 -7 -66 l0 -58 50 0 c28 0 50 5 50 10 0 6
-16 10 -35 10 -24 0 -35 5 -35 15 0 10 10 15 30 15 37 0 40 18 3 22 -42 5 -41
28 2 28 25 0 35 4 33 13 -5 13 -79 22 -91 11z"/>
<path d="M2378 2569 c-30 -17 -22 -48 17 -65 42 -17 37 -39 -7 -30 -21 4 -28
2 -26 -7 3 -6 20 -13 40 -15 64 -5 78 49 18 69 -39 14 -39 29 0 29 32 0 40 14
14 24 -22 8 -36 7 -56 -5z"/>
<path d="M2560 2562 c-27 -22 -29 -65 -5 -92 36 -40 115 -14 115 38 0 33 -8
45 -37 61 -30 15 -47 14 -73 -7z m78 -43 c4 -31 -20 -53 -47 -44 -45 14 -30
79 17 73 21 -2 28 -9 30 -29z"/>
<path d="M2758 2574 c-5 -4 -8 -34 -8 -66 0 -45 3 -58 15 -58 8 0 15 7 15 15
0 8 9 15 19 15 10 0 21 -7 25 -15 3 -8 12 -15 21 -15 17 0 20 16 4 26 -8 4 -8
9 0 17 13 13 15 64 3 71 -17 10 -87 18 -94 10z m72 -44 c0 -15 -7 -20 -25 -20
-18 0 -25 5 -25 20 0 15 7 20 25 20 18 0 25 -5 25 -20z"/>
<path d="M2950 2516 c0 -53 3 -66 15 -66 13 0 15 11 13 62 -2 38 -8 63 -15 66
-10 3 -13 -14 -13 -62z"/>
<path d="M3070 2515 l0 -65 50 0 c28 0 50 5 50 10 0 6 -16 10 -35 10 -24 0
-35 5 -35 15 0 10 10 15 30 15 17 0 30 5 30 10 0 6 -13 10 -30 10 -20 0 -30 5
-30 15 0 10 10 15 30 15 20 0 30 5 30 15 0 11 -12 15 -45 15 l-45 0 0 -65z"/>
<path d="M3268 2569 c-33 -19 -18 -62 25 -70 28 -6 20 -24 -11 -25 -44 -2 -48
-4 -32 -14 27 -18 78 -12 90 11 14 25 1 44 -35 53 -35 9 -31 26 5 26 32 0 40
14 14 24 -22 8 -36 7 -56 -5z"/>
<path d="M1252 2158 c7 -177 25 -232 103 -317 103 -110 241 -156 450 -148 222
8 342 80 406 246 18 46 23 83 27 209 4 148 4 152 -16 152 -19 0 -20 -7 -24
-147 -3 -123 -8 -157 -26 -204 -32 -80 -90 -142 -170 -181 -62 -31 -73 -33
-172 -33 -93 0 -111 3 -160 26 -142 69 -190 170 -190 406 l0 133 -116 0 -117
0 5 -142z"/>
<path d="M2584 2273 c13 -54 96 -209 147 -277 93 -122 243 -226 375 -261 32
-8 92 -15 134 -15 127 0 227 36 327 118 l56 45 61 -67 c34 -36 67 -66 74 -66
16 0 18 470 1 470 -5 0 -19 -21 -31 -47 -41 -95 -113 -207 -171 -270 -84 -90
-178 -135 -291 -141 -257 -14 -387 134 -431 491 l-6 47 -126 0 -125 0 6 -27z"/>
</g>
</svg>
