<?xml version="1.0" standalone="no"?>
<!DOCTYPE svg PUBLIC "-//W3C//DTD SVG 20010904//EN"
 "http://www.w3.org/TR/2001/REC-SVG-20010904/DTD/svg10.dtd">
<svg version="1.0" xmlns="http://www.w3.org/2000/svg"
 width="500.000000pt" height="500.000000pt" viewBox="0 0 500.000000 500.000000"
 preserveAspectRatio="xMidYMid meet">

<g transform="translate(0.000000,500.000000) scale(0.100000,-0.100000)"
fill="#000000" stroke="none">
<path d="M3135 3305 c-232 -42 -441 -235 -535 -493 -16 -46 -30 -89 -30 -97 0
-12 22 -15 128 -15 l128 0 12 103 c28 240 116 394 256 445 154 58 332 23 461
-90 50 -44 116 -144 146 -220 11 -29 25 -57 30 -63 5 -5 9 74 9 207 0 142 -4
219 -11 223 -5 4 -35 -18 -66 -49 l-56 -56 -48 30 c-58 38 -136 66 -220 79
-80 13 -115 13 -204 -4z"/>
<path d="M1057 3283 c-4 -3 -7 -12 -7 -20 0 -10 23 -13 100 -13 l100 0 0 -275
0 -275 115 0 115 0 0 275 0 275 101 0 c90 0 100 2 97 18 -3 16 -27 17 -309 20
-168 1 -308 -1 -312 -5z"/>
<path d="M2007 3283 c-4 -3 -7 -12 -7 -20 0 -10 23 -13 100 -13 l100 0 0 -275
c0 -268 0 -275 20 -275 20 0 20 7 20 275 l0 275 100 0 c93 0 100 1 100 20 0
19 -7 20 -213 20 -118 0 -217 -3 -220 -7z"/>
<path d="M1707 2574 c-4 -4 -7 -34 -7 -66 0 -44 4 -58 14 -58 8 0 16 10 18 23
2 16 11 23 31 25 37 4 35 22 -3 22 -20 0 -30 5 -30 15 0 11 11 15 36 15 24 0
34 4 32 13 -5 13 -79 22 -91 11z"/>
<path d="M1896 2559 c-31 -25 -34 -61 -6 -89 20 -20 65 -26 86 -12 13 9 34 46
34 62 0 18 -48 60 -68 60 -11 0 -31 -9 -46 -21z m74 -24 c28 -34 -26 -84 -57
-52 -23 23 -9 67 21 67 13 0 29 -7 36 -15z"/>
<path d="M2110 2562 c-27 -22 -29 -65 -5 -92 36 -40 115 -14 115 38 0 33 -8
45 -37 61 -30 15 -47 14 -73 -7z m78 -43 c4 -31 -20 -53 -47 -44 -45 14 -30
79 17 73 21 -2 28 -9 30 -29z"/>
<path d="M2290 2565 c0 -8 9 -15 20 -15 17 0 20 -7 20 -50 0 -38 4 -50 15 -50
11 0 15 12 15 50 0 43 3 50 20 50 11 0 20 7 20 15 0 12 -13 15 -55 15 -42 0
-55 -3 -55 -15z"/>
<path d="M2471 2568 c0 -7 8 -35 18 -63 23 -65 44 -69 64 -13 l14 43 13 -42
c19 -61 42 -57 63 10 19 62 21 77 7 77 -5 0 -15 -18 -21 -40 -7 -22 -15 -40
-19 -40 -4 0 -12 18 -19 40 -6 22 -16 40 -22 40 -6 0 -18 -19 -27 -41 l-16
-42 -18 42 c-16 39 -39 56 -37 29z"/>
<path d="M2750 2515 l0 -65 45 0 c25 0 45 5 45 10 0 6 -13 10 -30 10 -20 0
-30 5 -30 15 0 9 9 15 25 15 14 0 25 5 25 10 0 6 -11 10 -25 10 -16 0 -25 6
-25 15 0 10 10 15 30 15 20 0 30 5 30 15 0 11 -12 15 -45 15 l-45 0 0 -65z"/>
<path d="M2946 2524 c-14 -31 -26 -60 -26 -65 0 -15 27 -10 34 6 3 8 17 15 31
15 14 0 28 -7 31 -15 4 -8 13 -15 21 -15 8 0 13 6 10 13 -39 93 -52 117 -63
117 -7 0 -24 -25 -38 -56z m54 -16 c0 -5 -7 -8 -15 -8 -15 0 -20 21 -8 33 7 7
23 -11 23 -25z"/>
<path d="M3130 2515 c0 -51 3 -65 15 -65 8 0 15 7 15 15 0 8 6 15 14 15 7 0
19 -7 26 -15 7 -8 19 -15 27 -15 13 0 13 3 3 15 -11 13 -11 20 0 40 7 13 10
31 7 39 -7 19 -47 36 -83 36 -23 0 -24 -3 -24 -65z m75 15 c0 -8 -10 -16 -22
-18 -18 -3 -23 2 -23 18 0 16 5 21 23 18 12 -2 22 -10 22 -18z"/>
<path d="M1252 2158 c7 -177 25 -232 103 -317 103 -110 241 -156 450 -148 222
8 342 80 406 246 18 46 23 83 27 209 4 148 4 152 -16 152 -19 0 -20 -7 -24
-147 -3 -123 -8 -157 -26 -204 -32 -80 -90 -142 -170 -181 -62 -31 -73 -33
-172 -33 -93 0 -111 3 -160 26 -142 69 -190 170 -190 406 l0 133 -116 0 -117
0 5 -142z"/>
<path d="M2584 2273 c13 -54 96 -209 147 -277 93 -122 243 -226 375 -261 32
-8 92 -15 134 -15 127 0 227 36 327 118 l56 45 61 -67 c34 -36 67 -66 74 -66
16 0 18 470 1 470 -5 0 -19 -21 -31 -47 -41 -95 -113 -207 -171 -270 -84 -90
-178 -135 -291 -141 -257 -14 -387 134 -431 491 l-6 47 -126 0 -125 0 6 -27z"/>
</g>
</svg>
