<?xml version="1.0" standalone="no"?>
<!DOCTYPE svg PUBLIC "-//W3C//DTD SVG 20010904//EN"
 "http://www.w3.org/TR/2001/REC-SVG-20010904/DTD/svg10.dtd">
<svg version="1.0" xmlns="http://www.w3.org/2000/svg"
 width="500.000000pt" height="500.000000pt" viewBox="0 0 500.000000 500.000000"
 preserveAspectRatio="xMidYMid meet">

<g transform="translate(0.000000,500.000000) scale(0.100000,-0.100000)"
fill="#000000" stroke="none">
<path d="M3135 3305 c-232 -42 -441 -235 -535 -493 -16 -46 -30 -89 -30 -97 0
-12 22 -15 128 -15 l128 0 12 103 c28 240 116 394 256 445 154 58 332 23 461
-90 50 -44 116 -144 146 -220 11 -29 25 -57 30 -63 5 -5 9 74 9 207 0 142 -4
219 -11 223 -5 4 -35 -18 -66 -49 l-56 -56 -48 30 c-58 38 -136 66 -220 79
-80 13 -115 13 -204 -4z"/>
<path d="M1057 3283 c-4 -3 -7 -12 -7 -20 0 -10 23 -13 100 -13 l100 0 0 -275
0 -275 115 0 115 0 0 275 0 275 101 0 c90 0 100 2 97 18 -3 16 -27 17 -309 20
-168 1 -308 -1 -312 -5z"/>
<path d="M2007 3283 c-4 -3 -7 -12 -7 -20 0 -10 23 -13 100 -13 l100 0 0 -275
c0 -268 0 -275 20 -275 20 0 20 7 20 275 l0 275 100 0 c93 0 100 1 100 20 0
19 -7 20 -213 20 -118 0 -217 -3 -220 -7z"/>
<path d="M1850 2516 c0 -52 3 -66 15 -66 9 0 15 9 15 25 0 21 5 25 30 25 25 0
30 -4 30 -25 0 -16 6 -25 15 -25 13 0 15 11 13 62 -2 38 -8 63 -15 66 -8 2
-13 -6 -13 -22 0 -22 -4 -26 -29 -26 -23 0 -30 5 -33 22 -2 12 -9 23 -15 26
-10 3 -13 -14 -13 -62z"/>
<path d="M2076 2559 c-31 -25 -34 -61 -6 -89 20 -20 65 -26 86 -12 13 9 34 46
34 62 0 18 -48 60 -68 60 -11 0 -31 -9 -46 -21z m74 -24 c28 -34 -26 -84 -57
-52 -23 23 -9 67 21 67 13 0 29 -7 36 -15z"/>
<path d="M2290 2562 c-27 -22 -29 -65 -5 -92 36 -40 115 -14 115 38 0 33 -8
45 -37 61 -30 15 -47 14 -73 -7z m78 -43 c4 -31 -20 -53 -47 -44 -45 14 -30
79 17 73 21 -2 28 -9 30 -29z"/>
<path d="M2488 2574 c-5 -4 -8 -34 -8 -66 l0 -58 45 0 c109 0 116 112 8 127
-21 3 -41 1 -45 -3z m76 -30 c23 -9 20 -51 -5 -64 -32 -17 -49 -5 -49 35 0 36
15 44 54 29z"/>
<path d="M2697 2573 c-4 -3 -7 -33 -7 -65 0 -45 3 -58 15 -58 12 0 15 14 15
65 0 60 -6 75 -23 58z"/>
<path d="M2817 2573 c-4 -3 -7 -33 -7 -65 l0 -58 50 0 c55 0 69 17 18 22 -42
4 -50 28 -9 28 38 0 41 17 4 22 -42 5 -41 28 1 28 25 0 36 4 36 15 0 11 -11
15 -43 15 -24 0 -47 -3 -50 -7z"/>
<path d="M3008 2569 c-30 -17 -22 -48 17 -65 47 -19 46 -38 -1 -29 -28 5 -35
3 -32 -7 6 -17 65 -23 84 -7 25 21 16 47 -21 59 -43 14 -46 30 -5 30 32 0 40
14 14 24 -22 8 -36 7 -56 -5z"/>
<path d="M1252 2158 c7 -177 25 -232 103 -317 103 -110 241 -156 450 -148 222
8 342 80 406 246 18 46 23 83 27 209 4 148 4 152 -16 152 -19 0 -20 -7 -24
-147 -3 -123 -8 -157 -26 -204 -32 -80 -90 -142 -170 -181 -62 -31 -73 -33
-172 -33 -93 0 -111 3 -160 26 -142 69 -190 170 -190 406 l0 133 -116 0 -117
0 5 -142z"/>
<path d="M2584 2273 c13 -54 96 -209 147 -277 93 -122 243 -226 375 -261 32
-8 92 -15 134 -15 127 0 227 36 327 118 l56 45 61 -67 c34 -36 67 -66 74 -66
16 0 18 470 1 470 -5 0 -19 -21 -31 -47 -41 -95 -113 -207 -171 -270 -84 -90
-178 -135 -291 -141 -257 -14 -387 134 -431 491 l-6 47 -126 0 -125 0 6 -27z"/>
</g>
</svg>
