<?xml version="1.0" standalone="no"?>
<!DOCTYPE svg PUBLIC "-//W3C//DTD SVG 20010904//EN"
 "http://www.w3.org/TR/2001/REC-SVG-20010904/DTD/svg10.dtd">
<svg version="1.0" xmlns="http://www.w3.org/2000/svg"
 width="500.000000pt" height="500.000000pt" viewBox="0 0 500.000000 500.000000"
 preserveAspectRatio="xMidYMid meet">

<g transform="translate(0.000000,500.000000) scale(0.100000,-0.100000)"
fill="#000000" stroke="none">
<path d="M3135 3305 c-232 -42 -441 -235 -535 -493 -16 -46 -30 -89 -30 -97 0
-12 22 -15 128 -15 l128 0 12 103 c28 240 116 394 256 445 154 58 332 23 461
-90 50 -44 116 -144 146 -220 11 -29 25 -57 30 -63 5 -5 9 74 9 207 0 142 -4
219 -11 223 -5 4 -35 -18 -66 -49 l-56 -56 -48 30 c-58 38 -136 66 -220 79
-80 13 -115 13 -204 -4z"/>
<path d="M1057 3283 c-4 -3 -7 -12 -7 -20 0 -10 23 -13 100 -13 l100 0 0 -275
0 -275 115 0 115 0 0 275 0 275 101 0 c90 0 100 2 97 18 -3 16 -27 17 -309 20
-168 1 -308 -1 -312 -5z"/>
<path d="M2007 3283 c-4 -3 -7 -12 -7 -20 0 -10 23 -13 100 -13 l100 0 0 -275
c0 -268 0 -275 20 -275 20 0 20 7 20 275 l0 275 100 0 c93 0 100 1 100 20 0
19 -7 20 -213 20 -118 0 -217 -3 -220 -7z"/>
<path d="M1870 2565 c0 -8 9 -15 21 -15 17 0 20 -5 17 -37 -3 -33 -6 -38 -26
-35 -31 3 -24 -22 7 -26 37 -6 51 15 51 74 l0 54 -35 0 c-24 0 -35 -5 -35 -15z"/>
<path d="M2046 2519 c-14 -33 -26 -62 -26 -65 0 -11 29 -2 34 11 3 8 17 15 31
15 14 0 28 -7 31 -15 7 -16 34 -21 34 -6 0 22 -53 121 -64 121 -8 0 -25 -27
-40 -61z m54 -11 c0 -5 -7 -8 -15 -8 -17 0 -18 2 -9 25 5 13 8 14 15 3 5 -7 9
-16 9 -20z"/>
<path d="M2250 2562 c-44 -35 -17 -112 39 -112 33 0 56 14 46 29 -5 9 -10 9
-20 1 -8 -7 -23 -9 -34 -5 -45 14 -30 78 17 75 43 -3 48 0 28 15 -26 20 -49
19 -76 -3z"/>
<path d="M2427 2573 c-4 -3 -7 -33 -7 -65 0 -45 3 -58 15 -58 8 0 15 6 15 14
0 26 21 29 44 7 37 -35 51 -25 21 15 l-27 35 23 25 c35 38 13 41 -26 4 l-35
-34 0 32 c0 30 -9 40 -23 25z"/>
<path d="M2620 2515 l0 -65 50 0 c28 0 50 5 50 10 0 6 -16 10 -35 10 -24 0
-35 5 -35 15 0 10 10 15 30 15 17 0 30 5 30 10 0 6 -13 10 -30 10 -20 0 -30 5
-30 15 0 10 10 15 30 15 20 0 30 5 30 15 0 11 -12 15 -45 15 l-45 0 0 -65z"/>
<path d="M2790 2566 c0 -9 9 -16 20 -16 17 0 20 -7 20 -50 0 -38 4 -50 15 -50
11 0 15 12 15 50 0 44 3 50 21 50 12 0 19 5 17 13 -3 7 -26 13 -56 15 -42 2
-52 0 -52 -12z"/>
<path d="M2988 2569 c-30 -17 -22 -48 17 -65 42 -17 37 -39 -7 -30 -21 4 -28
2 -26 -7 3 -6 20 -13 40 -15 64 -5 78 49 18 69 -39 14 -39 29 0 29 32 0 40 14
14 24 -22 8 -36 7 -56 -5z"/>
<path d="M1252 2158 c7 -177 25 -232 103 -317 103 -110 241 -156 450 -148 222
8 342 80 406 246 18 46 23 83 27 209 4 148 4 152 -16 152 -19 0 -20 -7 -24
-147 -3 -123 -8 -157 -26 -204 -32 -80 -90 -142 -170 -181 -62 -31 -73 -33
-172 -33 -93 0 -111 3 -160 26 -142 69 -190 170 -190 406 l0 133 -116 0 -117
0 5 -142z"/>
<path d="M2584 2273 c13 -54 96 -209 147 -277 93 -122 243 -226 375 -261 32
-8 92 -15 134 -15 127 0 227 36 327 118 l56 45 61 -67 c34 -36 67 -66 74 -66
16 0 18 470 1 470 -5 0 -19 -21 -31 -47 -41 -95 -113 -207 -171 -270 -84 -90
-178 -135 -291 -141 -257 -14 -387 134 -431 491 l-6 47 -126 0 -125 0 6 -27z"/>
</g>
</svg>
