<?xml version="1.0" standalone="no"?>
<!DOCTYPE svg PUBLIC "-//W3C//DTD SVG 20010904//EN"
 "http://www.w3.org/TR/2001/REC-SVG-20010904/DTD/svg10.dtd">
<svg version="1.0" xmlns="http://www.w3.org/2000/svg"
 width="500.000000pt" height="500.000000pt" viewBox="0 0 500.000000 500.000000"
 preserveAspectRatio="xMidYMid meet">

<g transform="translate(0.000000,500.000000) scale(0.100000,-0.100000)"
fill="#000000" stroke="none">
<path d="M3135 3305 c-232 -42 -441 -235 -535 -493 -16 -46 -30 -89 -30 -97 0
-12 22 -15 128 -15 l128 0 12 103 c28 240 116 394 256 445 154 58 332 23 461
-90 50 -44 116 -144 146 -220 11 -29 25 -57 30 -63 5 -5 9 74 9 207 0 142 -4
219 -11 223 -5 4 -35 -18 -66 -49 l-56 -56 -48 30 c-58 38 -136 66 -220 79
-80 13 -115 13 -204 -4z"/>
<path d="M1057 3283 c-4 -3 -7 -12 -7 -20 0 -10 23 -13 100 -13 l100 0 0 -275
0 -275 115 0 115 0 0 275 0 275 101 0 c90 0 100 2 97 18 -3 16 -27 17 -309 20
-168 1 -308 -1 -312 -5z"/>
<path d="M2007 3283 c-4 -3 -7 -12 -7 -20 0 -10 23 -13 100 -13 l100 0 0 -275
c0 -268 0 -275 20 -275 20 0 20 7 20 275 l0 275 100 0 c93 0 100 1 100 20 0
19 -7 20 -213 20 -118 0 -217 -3 -220 -7z"/>
<path d="M2040 2515 c0 -51 3 -65 15 -65 8 0 15 6 15 14 0 8 14 17 30 21 79
17 50 95 -36 95 -23 0 -24 -3 -24 -65z m75 15 c0 -8 -10 -16 -22 -18 -18 -3
-23 2 -23 18 0 16 5 21 23 18 12 -2 22 -10 22 -18z"/>
<path d="M2246 2519 c-14 -33 -26 -62 -26 -65 0 -11 29 -2 34 11 3 8 17 15 31
15 14 0 28 -7 31 -15 7 -16 34 -21 34 -6 0 22 -53 121 -64 121 -8 0 -25 -27
-40 -61z m54 -11 c0 -5 -7 -8 -15 -8 -17 0 -18 2 -9 25 5 13 8 14 15 3 5 -7 9
-16 9 -20z"/>
<path d="M2430 2515 c0 -51 3 -65 15 -65 11 0 15 11 15 37 l0 38 31 -38 c46
-56 61 -50 57 25 -2 38 -8 63 -15 66 -9 2 -13 -8 -13 -32 0 -20 -2 -36 -5 -36
-3 0 -19 16 -36 35 -17 19 -35 35 -40 35 -5 0 -9 -29 -9 -65z"/>
<path d="M2627 2573 c-13 -12 -7 -23 13 -23 17 0 20 -7 20 -50 0 -38 4 -50 15
-50 11 0 15 12 15 50 0 43 3 50 20 50 11 0 20 7 20 15 0 11 -12 15 -48 15 -27
0 -52 -3 -55 -7z"/>
<path d="M2820 2562 c-28 -22 -18 -51 21 -59 40 -8 39 -35 -1 -31 -16 2 -29
-1 -30 -7 -1 -13 35 -18 67 -10 19 4 24 11 21 33 -2 20 -11 29 -35 36 -41 11
-43 26 -4 26 34 0 49 15 25 24 -25 10 -40 7 -64 -12z"/>
<path d="M1252 2158 c7 -177 25 -232 103 -317 103 -110 241 -156 450 -148 222
8 342 80 406 246 18 46 23 83 27 209 4 148 4 152 -16 152 -19 0 -20 -7 -24
-147 -3 -123 -8 -157 -26 -204 -32 -80 -90 -142 -170 -181 -62 -31 -73 -33
-172 -33 -93 0 -111 3 -160 26 -142 69 -190 170 -190 406 l0 133 -116 0 -117
0 5 -142z"/>
<path d="M2584 2273 c13 -54 96 -209 147 -277 93 -122 243 -226 375 -261 32
-8 92 -15 134 -15 127 0 227 36 327 118 l56 45 61 -67 c34 -36 67 -66 74 -66
16 0 18 470 1 470 -5 0 -19 -21 -31 -47 -41 -95 -113 -207 -171 -270 -84 -90
-178 -135 -291 -141 -257 -14 -387 134 -431 491 l-6 47 -126 0 -125 0 6 -27z"/>
</g>
</svg>
