<?xml version="1.0" standalone="no"?>
<!DOCTYPE svg PUBLIC "-//W3C//DTD SVG 20010904//EN"
 "http://www.w3.org/TR/2001/REC-SVG-20010904/DTD/svg10.dtd">
<svg version="1.0" xmlns="http://www.w3.org/2000/svg"
 width="500.000000pt" height="500.000000pt" viewBox="0 0 500.000000 500.000000"
 preserveAspectRatio="xMidYMid meet">

<g transform="translate(0.000000,500.000000) scale(0.100000,-0.100000)"
fill="#000000" stroke="none">
<path d="M3135 3305 c-232 -42 -441 -235 -535 -493 -16 -46 -30 -89 -30 -97 0
-12 22 -15 128 -15 l128 0 12 103 c28 240 116 394 256 445 154 58 332 23 461
-90 50 -44 116 -144 146 -220 11 -29 25 -57 30 -63 5 -5 9 74 9 207 0 142 -4
219 -11 223 -5 4 -35 -18 -66 -49 l-56 -56 -48 30 c-58 38 -136 66 -220 79
-80 13 -115 13 -204 -4z"/>
<path d="M1057 3283 c-4 -3 -7 -12 -7 -20 0 -10 23 -13 100 -13 l100 0 0 -275
0 -275 115 0 115 0 0 275 0 275 101 0 c90 0 100 2 97 18 -3 16 -27 17 -309 20
-168 1 -308 -1 -312 -5z"/>
<path d="M2007 3283 c-4 -3 -7 -12 -7 -20 0 -10 23 -13 100 -13 l100 0 0 -275
c0 -268 0 -275 20 -275 20 0 20 7 20 275 l0 275 100 0 c93 0 100 1 100 20 0
19 -7 20 -213 20 -118 0 -217 -3 -220 -7z"/>
<path d="M1827 2573 c-13 -12 -7 -23 13 -23 17 0 20 -7 20 -50 0 -38 4 -50 15
-50 11 0 15 12 15 50 0 43 3 50 20 50 11 0 20 7 20 15 0 11 -12 15 -48 15 -27
0 -52 -3 -55 -7z"/>
<path d="M2150 2562 c-28 -22 -18 -51 21 -59 40 -8 39 -35 -1 -31 -16 2 -29
-1 -30 -7 -1 -13 35 -18 67 -10 19 4 24 11 21 33 -2 20 -11 29 -35 36 -41 11
-43 26 -4 26 34 0 49 15 25 24 -25 10 -40 7 -64 -12z"/>
<path d="M2320 2516 c0 -52 3 -66 15 -66 9 0 15 9 15 25 0 20 5 25 25 25 20 0
25 -5 25 -25 0 -16 6 -25 15 -25 12 0 15 14 15 66 0 48 -3 65 -12 62 -7 -3
-14 -14 -16 -26 -2 -16 -10 -22 -27 -22 -17 0 -25 6 -27 22 -2 12 -9 23 -15
26 -10 3 -13 -14 -13 -62z"/>
<path d="M2527 2573 c-4 -3 -7 -33 -7 -65 0 -45 3 -58 15 -58 12 0 15 14 15
65 0 60 -6 75 -23 58z"/>
<path d="M2648 2574 c-5 -4 -8 -34 -8 -66 0 -45 3 -58 15 -58 8 0 15 7 15 15
0 8 9 15 19 15 10 0 21 -7 25 -15 3 -8 12 -15 21 -15 17 0 20 16 4 26 -8 4 -8
9 0 17 13 13 15 64 3 71 -17 10 -87 18 -94 10z m72 -44 c0 -15 -7 -20 -25 -20
-18 0 -25 5 -25 20 0 15 7 20 25 20 18 0 25 -5 25 -20z"/>
<path d="M2830 2566 c0 -9 9 -16 20 -16 17 0 20 -7 20 -50 0 -27 5 -50 10 -50
6 0 10 22 10 49 0 42 3 50 20 53 41 6 24 23 -27 26 -43 2 -53 0 -53 -12z"/>
<path d="M3028 2569 c-33 -19 -18 -62 25 -70 28 -6 20 -24 -11 -25 -44 -2 -48
-4 -32 -14 27 -18 78 -12 90 11 14 25 1 44 -35 53 -35 9 -31 26 5 26 32 0 40
14 14 24 -22 8 -36 7 -56 -5z"/>
<path d="M2000 2500 c0 -5 14 -10 30 -10 17 0 30 5 30 10 0 6 -13 10 -30 10
-16 0 -30 -4 -30 -10z"/>
<path d="M1252 2158 c7 -177 25 -232 103 -317 103 -110 241 -156 450 -148 222
8 342 80 406 246 18 46 23 83 27 209 4 148 4 152 -16 152 -19 0 -20 -7 -24
-147 -3 -123 -8 -157 -26 -204 -32 -80 -90 -142 -170 -181 -62 -31 -73 -33
-172 -33 -93 0 -111 3 -160 26 -142 69 -190 170 -190 406 l0 133 -116 0 -117
0 5 -142z"/>
<path d="M2584 2273 c13 -54 96 -209 147 -277 93 -122 243 -226 375 -261 32
-8 92 -15 134 -15 127 0 227 36 327 118 l56 45 61 -67 c34 -36 67 -66 74 -66
16 0 18 470 1 470 -5 0 -19 -21 -31 -47 -41 -95 -113 -207 -171 -270 -84 -90
-178 -135 -291 -141 -257 -14 -387 134 -431 491 l-6 47 -126 0 -125 0 6 -27z"/>
</g>
</svg>
